<svg height="20px" width="20px" fill="#000000" xmlns="http://www.w3.org/2000/svg" viewBox="0 0 96 96"><path d="M82,60H62.6021l2.8237-24H82a2,2,0,0,0,0-4H65.8962l2.09-17.7656a2,2,0,1,0-3.9726-.4688L61.8684,32H37.8962l2.09-17.7656a2,2,0,1,0-3.9726-.4688L33.8684,32H14a2,2,0,0,0,0,4H33.3979L30.5742,60H14a2,2,0,1,0,0,4H30.1038l-2.09,17.7656a2.0007,2.0007,0,0,0,1.7519,2.2207A1.9338,1.9338,0,0,0,30.002,84a2,2,0,0,0,1.9843-1.7656L34.1316,64H58.1038l-2.09,17.7656a2.0007,2.0007,0,0,0,1.7519,2.2207A1.9338,1.9338,0,0,0,58.002,84a2,2,0,0,0,1.9843-1.7656L62.1316,64H82a2,2,0,0,0,0-4ZM34.6021,60l2.8237-24H61.3979L58.5742,60Z"></path></svg>