<svg height="20px" width="20px" fill="#000000" xmlns="http://www.w3.org/2000/svg" viewBox="0 0 32 32">
  <path d="M22,4H10a6,6,0,0,0-6,6V22a6,6,0,0,0,6,6H22a6,6,0,0,0,6-6V10A6,6,0,0,0,22,4Zm4,18a4,4,0,0,1-4,4H10a4,4,0,0,1-4-4V10a4,4,0,0,1,4-4H22a4,4,0,0,1,4,4Zm-3.73-9.9h-1.6L21,10.48a1,1,0,1,0-2-.38l-.38,2H14.87l.32-1.62a1,1,0,1,0-2-.38l-.38,2h-2a1,1,0,0,0,0,2h1.6l-.74,3.8h-2a1,1,0,0,0,0,2h1.6L11,21.52a1,1,0,0,0,.79,1.18H12a1,1,0,0,0,1-.81l.38-2h3.77l-.32,1.62a1,1,0,0,0,.79,1.18h.19a1,1,0,0,0,1-.81l.38-2h2a1,1,0,0,0,0-2h-1.6l.74-3.8h2a1,1,0,0,0,0-2Zm-4.76,5.8H13.75l.74-3.8h3.76Z"></path>
</svg>